<svg t="1774947847265" class="icon" viewBox="0 0 1024 1024" version="1.1" xmlns="http://www.w3.org/2000/svg" p-id="4394" width="200" height="200"><path d="M946.037818 831.824073h45.634319v45.634319h-45.634319zM946.037818 786.104456h45.634319v45.719617h-45.634319z" fill="#340B1D" p-id="4395"></path><path d="M946.037818 603.311287h45.634319v45.719617h-45.634319zM946.037818 557.676968h45.634319v45.634319h-45.634319z" fill="#360C18" p-id="4396"></path><path d="M946.037818 511.957351h45.634319v45.719617h-45.634319zM946.037818 466.323032h45.634319v45.634319h-45.634319z" fill="#360C18" p-id="4397"></path><path d="M900.318201 877.458392h45.719617v45.719617h-45.719617z" fill="#571F32" p-id="4398"></path><path d="M900.318201 831.824073h45.719617v45.634319h-45.719617zM900.318201 786.104456h45.719617v45.719617h-45.719617z" fill="#EA4A6E" p-id="4399"></path><path d="M900.318201 740.38484h45.719617v45.719616h-45.719617zM900.318201 649.030904h45.719617v45.719617h-45.719617z" fill="#360C18" p-id="4400"></path><path d="M900.318201 603.311287h45.719617v45.719617h-45.719617z" fill="#ED799C" p-id="4401"></path><path d="M900.318201 557.676968h45.719617v45.634319h-45.719617z" fill="#FA9BB7" p-id="4402"></path><path d="M900.318201 511.957351h45.719617v45.719617h-45.719617z" fill="#FDA8C7" p-id="4403"></path><path d="M900.318201 466.323032h45.719617v45.634319h-45.719617z" fill="#EA7D9A" p-id="4404"></path><path d="M900.318201 420.603415h45.719617v45.719617h-45.719617z" fill="#360C18" p-id="4405"></path><path d="M854.598584 877.458392h45.719617v45.719617h-45.719617z" fill="#571F32" p-id="4406"></path><path d="M854.598584 831.824073h45.719617v45.634319h-45.719617z" fill="#EA4A6E" p-id="4407"></path><path d="M854.598584 786.104456h45.719617v45.719617h-45.719617z" fill="#FFDBE7" p-id="4408"></path><path d="M854.598584 740.38484h45.719617v45.719616h-45.719617z" fill="#FF7799" p-id="4409"></path><path d="M854.598584 694.750521h45.719617v45.634319h-45.719617zM854.598584 649.030904h45.719617v45.719617h-45.719617z" fill="#360C18" p-id="4410"></path><path d="M854.598584 603.311287h45.719617v45.719617h-45.719617z" fill="#ED799C" p-id="4411"></path><path d="M854.598584 557.676968h45.719617v45.634319h-45.719617z" fill="#FDA8C7" p-id="4412"></path><path d="M854.598584 511.957351h45.719617v45.719617h-45.719617zM854.598584 466.323032h45.719617v45.634319h-45.719617z" fill="#FDA8C7" p-id="4413"></path><path d="M854.598584 420.603415h45.719617v45.719617h-45.719617zM854.598584 374.883798h45.719617v45.719617h-45.719617zM854.598584 329.249479h45.719617v45.634319h-45.719617z" fill="#360C18" p-id="4414"></path><path d="M808.964265 877.458392h45.634319v45.719617h-45.634319z" fill="#571F32" p-id="4415"></path><path d="M808.964265 831.824073h45.634319v45.634319h-45.634319z" fill="#EA4A6E" p-id="4416"></path><path d="M808.964265 786.104456h45.634319v45.719617h-45.634319z" fill="#FF6084" p-id="4417"></path><path d="M808.964265 740.38484h45.634319v45.719616h-45.634319z" fill="#FF7799" p-id="4418"></path><path d="M808.964265 694.750521h45.634319v45.634319h-45.634319z" fill="#EA4A6E" p-id="4419"></path><path d="M808.964265 649.030904h45.634319v45.719617h-45.634319z" fill="#ED799C" p-id="4420"></path><path d="M808.964265 603.311287h45.634319v45.719617h-45.634319z" fill="#FA9BB7" p-id="4421"></path><path d="M808.964265 557.676968h45.634319v45.634319h-45.634319z" fill="#FDA8C7" p-id="4422"></path><path d="M808.964265 511.957351h45.634319v45.719617h-45.634319zM808.964265 466.323032h45.634319v45.634319h-45.634319zM808.964265 420.603415h45.634319v45.719617h-45.634319zM808.964265 374.883798h45.634319v45.719617h-45.634319z" fill="#FDA8C7" p-id="4423"></path><path d="M808.964265 329.249479h45.634319v45.634319h-45.634319z" fill="#EA7D9A" p-id="4424"></path><path d="M808.964265 283.529863h45.634319v45.719616h-45.634319zM808.964265 237.810246h45.634319v45.719617h-45.634319z" fill="#360C18" p-id="4425"></path><path d="M763.244648 877.458392h45.719617v45.719617h-45.719617z" fill="#571F32" p-id="4426"></path><path d="M763.244648 831.824073h45.719617v45.634319h-45.719617z" fill="#EA4A6E" p-id="4427"></path><path d="M763.244648 786.104456h45.719617v45.719617h-45.719617zM763.244648 740.38484h45.719617v45.719616h-45.719617z" fill="#FF6084" p-id="4428"></path><path d="M763.244648 694.750521h45.719617v45.634319h-45.719617z" fill="#ED799C" p-id="4429"></path><path d="M763.244648 649.030904h45.719617v45.719617h-45.719617zM763.244648 603.311287h45.719617v45.719617h-45.719617z" fill="#FA9BB7" p-id="4430"></path><path d="M763.244648 557.676968h45.719617v45.634319h-45.719617z" fill="#FDA8C7" p-id="4431"></path><path d="M763.244648 511.957351h45.719617v45.719617h-45.719617z" fill="#FDA8C7" p-id="4432"></path><path d="M763.244648 466.323032h45.719617v45.634319h-45.719617z" fill="#FA4F77" p-id="4433"></path><path d="M763.244648 420.603415h45.719617v45.719617h-45.719617zM763.244648 374.883798h45.719617v45.719617h-45.719617zM763.244648 329.249479h45.719617v45.634319h-45.719617zM763.244648 283.529863h45.719617v45.719616h-45.719617zM763.244648 237.810246h45.719617v45.719617h-45.719617z" fill="#FDA8C7" p-id="4434"></path><path d="M763.244648 192.175927h45.719617v45.634319h-45.719617z" fill="#58212F" p-id="4435"></path><path d="M717.525031 877.458392h45.719617v45.719617h-45.719617z" fill="#571F32" p-id="4436"></path><path d="M717.525031 831.824073h45.719617v45.634319h-45.719617zM717.525031 786.104456h45.719617v45.719617h-45.719617zM717.525031 740.38484h45.719617v45.719616h-45.719617z" fill="#EA4A6E" p-id="4437"></path><path d="M717.525031 694.750521h45.719617v45.634319h-45.719617zM717.525031 649.030904h45.719617v45.719617h-45.719617z" fill="#FA9BB7" p-id="4438"></path><path d="M717.525031 603.311287h45.719617v45.719617h-45.719617zM717.525031 557.676968h45.719617v45.634319h-45.719617z" fill="#FDA8C7" p-id="4439"></path><path d="M717.525031 511.957351h45.719617v45.719617h-45.719617z" fill="#FDA8C7" p-id="4440"></path><path d="M717.525031 466.323032h45.719617v45.634319h-45.719617z" fill="#FA4F77" p-id="4441"></path><path d="M717.525031 420.603415h45.719617v45.719617h-45.719617zM717.525031 374.883798h45.719617v45.719617h-45.719617zM717.525031 329.249479h45.719617v45.634319h-45.719617zM717.525031 283.529863h45.719617v45.719616h-45.719617zM717.525031 237.810246h45.719617v45.719617h-45.719617z" fill="#FDA8C7" p-id="4442"></path><path d="M717.525031 192.175927h45.719617v45.634319h-45.719617zM717.525031 146.45631h45.719617v45.719617h-45.719617z" fill="#58212F" p-id="4443"></path><path d="M671.890712 877.458392h45.634319v45.719617h-45.634319z" fill="#571F32" p-id="4444"></path><path d="M671.890712 831.824073h45.634319v45.634319h-45.634319zM671.890712 786.104456h45.634319v45.719617h-45.634319z" fill="#EA4A6E" p-id="4445"></path><path d="M671.890712 740.38484h45.634319v45.719616h-45.634319zM671.890712 694.750521h45.634319v45.634319h-45.634319z" fill="#FA9BB7" p-id="4446"></path><path d="M671.890712 649.030904h45.634319v45.719617h-45.634319zM671.890712 603.311287h45.634319v45.719617h-45.634319zM671.890712 557.676968h45.634319v45.634319h-45.634319z" fill="#FDA8C7" p-id="4447"></path><path d="M671.890712 511.957351h45.634319v45.719617h-45.634319z" fill="#FDA8C7" p-id="4448"></path><path d="M671.890712 466.323032h45.634319v45.634319h-45.634319zM671.890712 420.603415h45.634319v45.719617h-45.634319zM671.890712 374.883798h45.634319v45.719617h-45.634319z" fill="#360C18" p-id="4449"></path><path d="M671.890712 329.249479h45.634319v45.634319h-45.634319z" fill="#863C53" p-id="4450"></path><path d="M671.890712 283.529863h45.634319v45.719616h-45.634319z" fill="#EA7D9A" p-id="4451"></path><path d="M671.890712 237.810246h45.634319v45.719617h-45.634319z" fill="#FDA8C7" p-id="4452"></path><path d="M671.890712 192.175927h45.634319v45.634319h-45.634319z" fill="#FDA8C7" p-id="4453"></path><path d="M671.890712 146.45631h45.634319v45.719617h-45.634319z" fill="#58212F" p-id="4454"></path><path d="M626.171095 877.458392h45.719617v45.719617h-45.719617z" fill="#360C18" p-id="4455"></path><path d="M626.171095 831.824073h45.719617v45.634319h-45.719617z" fill="#EA4A6E" p-id="4456"></path><path d="M626.171095 786.104456h45.719617v45.719617h-45.719617z" fill="#ED799C" p-id="4457"></path><path d="M626.171095 740.38484h45.719617v45.719616h-45.719617z" fill="#FA9BB7" p-id="4458"></path><path d="M626.171095 694.750521h45.719617v45.634319h-45.719617zM626.171095 649.030904h45.719617v45.719617h-45.719617zM626.171095 603.311287h45.719617v45.719617h-45.719617z" fill="#FDA8C7" p-id="4459"></path><path d="M626.171095 557.676968h45.719617v45.634319h-45.719617z" fill="#EA7D9A" p-id="4460"></path><path d="M626.171095 511.957351h45.719617v45.719617h-45.719617z" fill="#FDA8C7" p-id="4461"></path><path d="M626.171095 466.323032h45.719617v45.634319h-45.719617z" fill="#B26483" p-id="4462"></path><path d="M626.171095 420.603415h45.719617v45.719617h-45.719617z" fill="#833D55" p-id="4463"></path><path d="M626.171095 374.883798h45.719617v45.719617h-45.719617z" fill="#360C18" p-id="4464"></path><path d="M626.171095 329.249479h45.719617v45.634319h-45.719617z" fill="#FEFFFD" p-id="4465"></path><path d="M626.171095 283.529863h45.719617v45.719616h-45.719617z" fill="#EA7D9A" p-id="4466"></path><path d="M626.171095 237.810246h45.719617v45.719617h-45.719617z" fill="#FDA8C7" p-id="4467"></path><path d="M626.171095 192.175927h45.719617v45.634319h-45.719617z" fill="#FDA8C7" p-id="4468"></path><path d="M626.171095 146.45631h45.719617v45.719617h-45.719617zM626.171095 100.736693h45.719617v45.719617h-45.719617z" fill="#58212F" p-id="4469"></path><path d="M580.536776 877.458392h45.634319v45.719617h-45.634319z" fill="#360C18" p-id="4470"></path><path d="M580.536776 831.824073h45.634319v45.634319h-45.634319z" fill="#EA4A6E" p-id="4471"></path><path d="M580.536776 786.104456h45.634319v45.719617h-45.634319z" fill="#ED799C" p-id="4472"></path><path d="M580.536776 740.38484h45.634319v45.719616h-45.634319z" fill="#FA9BB7" p-id="4473"></path><path d="M580.536776 694.750521h45.634319v45.634319h-45.634319zM580.536776 649.030904h45.634319v45.719617h-45.634319zM580.536776 603.311287h45.634319v45.719617h-45.634319zM580.536776 557.676968h45.634319v45.634319h-45.634319z" fill="#FDA8C7" p-id="4474"></path><path d="M580.536776 511.957351h45.634319v45.719617h-45.634319zM580.536776 466.323032h45.634319v45.634319h-45.634319zM580.536776 420.603415h45.634319v45.719617h-45.634319zM580.536776 374.883798h45.634319v45.719617h-45.634319zM580.536776 329.249479h45.634319v45.634319h-45.634319zM580.536776 283.529863h45.634319v45.719616h-45.634319zM580.536776 237.810246h45.634319v45.719617h-45.634319z" fill="#FDA8C7" p-id="4475"></path><path d="M580.536776 192.175927h45.634319v45.634319h-45.634319zM580.536776 146.45631h45.634319v45.719617h-45.634319z" fill="#FDA8C7" p-id="4476"></path><path d="M580.536776 100.736693h45.634319v45.719617h-45.634319z" fill="#58212F" p-id="4477"></path><path d="M534.81716 831.824073h45.719616v45.634319H534.81716z" fill="#360C18" p-id="4478"></path><path d="M534.81716 786.104456h45.719616v45.719617H534.81716zM534.81716 740.38484h45.719616v45.719616H534.81716z" fill="#FA9BB7" p-id="4479"></path><path d="M534.81716 694.750521h45.719616v45.634319H534.81716zM534.81716 649.030904h45.719616v45.719617H534.81716zM534.81716 603.311287h45.719616v45.719617H534.81716zM534.81716 557.676968h45.719616v45.634319H534.81716z" fill="#FDA8C7" p-id="4480"></path><path d="M534.81716 511.957351h45.719616v45.719617H534.81716z" fill="#FDA8C7" p-id="4481"></path><path d="M534.81716 466.323032h45.719616v45.634319H534.81716zM534.81716 420.603415h45.719616v45.719617H534.81716zM534.81716 374.883798h45.719616v45.719617H534.81716z" fill="#360C18" p-id="4482"></path><path d="M534.81716 329.249479h45.719616v45.634319H534.81716z" fill="#863C53" p-id="4483"></path><path d="M534.81716 283.529863h45.719616v45.719616H534.81716z" fill="#EA7D9A" p-id="4484"></path><path d="M534.81716 237.810246h45.719616v45.719617H534.81716z" fill="#FDA8C7" p-id="4485"></path><path d="M534.81716 192.175927h45.719616v45.634319H534.81716zM534.81716 146.45631h45.719616v45.719617H534.81716z" fill="#FDA8C7" p-id="4486"></path><path d="M534.81716 100.736693h45.719616v45.719617H534.81716z" fill="#58212F" p-id="4487"></path><path d="M489.097543 831.824073h45.719617v45.634319h-45.719617z" fill="#360C18" p-id="4488"></path><path d="M489.097543 786.104456h45.719617v45.719617h-45.719617zM489.097543 740.38484h45.719617v45.719616h-45.719617z" fill="#FA9BB7" p-id="4489"></path><path d="M489.097543 694.750521h45.719617v45.634319h-45.719617zM489.097543 649.030904h45.719617v45.719617h-45.719617zM489.097543 603.311287h45.719617v45.719617h-45.719617zM489.097543 557.676968h45.719617v45.634319h-45.719617z" fill="#FDA8C7" p-id="4490"></path><path d="M489.097543 511.957351h45.719617v45.719617h-45.719617z" fill="#FDA8C7" p-id="4491"></path><path d="M489.097543 466.323032h45.719617v45.634319h-45.719617z" fill="#B26483" p-id="4492"></path><path d="M489.097543 420.603415h45.719617v45.719617h-45.719617z" fill="#833D55" p-id="4493"></path><path d="M489.097543 374.883798h45.719617v45.719617h-45.719617z" fill="#360C18" p-id="4494"></path><path d="M489.097543 329.249479h45.719617v45.634319h-45.719617z" fill="#FEFFFD" p-id="4495"></path><path d="M489.097543 283.529863h45.719617v45.719616h-45.719617z" fill="#EA7D9A" p-id="4496"></path><path d="M489.097543 237.810246h45.719617v45.719617h-45.719617z" fill="#FDA8C7" p-id="4497"></path><path d="M489.097543 192.175927h45.719617v45.634319h-45.719617zM489.097543 146.45631h45.719617v45.719617h-45.719617z" fill="#FDA8C7" p-id="4498"></path><path d="M489.097543 100.736693h45.719617v45.719617h-45.719617z" fill="#58212F" p-id="4499"></path><path d="M443.463224 877.458392h45.634319v45.719617h-45.634319z" fill="#360C18" p-id="4500"></path><path d="M443.463224 831.824073h45.634319v45.634319h-45.634319z" fill="#EA4A6E" p-id="4501"></path><path d="M443.463224 786.104456h45.634319v45.719617h-45.634319zM443.463224 740.38484h45.634319v45.719616h-45.634319z" fill="#FA9BB7" p-id="4502"></path><path d="M443.463224 694.750521h45.634319v45.634319h-45.634319zM443.463224 649.030904h45.634319v45.719617h-45.634319zM443.463224 603.311287h45.634319v45.719617h-45.634319zM443.463224 557.676968h45.634319v45.634319h-45.634319z" fill="#FDA8C7" p-id="4503"></path><path d="M443.463224 511.957351h45.634319v45.719617h-45.634319zM443.463224 466.323032h45.634319v45.634319h-45.634319zM443.463224 420.603415h45.634319v45.719617h-45.634319zM443.463224 374.883798h45.634319v45.719617h-45.634319z" fill="#FDA8C7" p-id="4504"></path><path d="M443.463224 329.249479h45.634319v45.634319h-45.634319z" fill="#EA7D9C" p-id="4505"></path><path d="M443.463224 283.529863h45.634319v45.719616h-45.634319zM443.463224 237.810246h45.634319v45.719617h-45.634319z" fill="#FDA8C7" p-id="4506"></path><path d="M443.463224 192.175927h45.634319v45.634319h-45.634319zM443.463224 146.45631h45.634319v45.719617h-45.634319z" fill="#FDA8C7" p-id="4507"></path><path d="M443.463224 100.736693h45.634319v45.719617h-45.634319z" fill="#58212F" p-id="4508"></path><path d="M397.743607 877.458392h45.719617v45.719617h-45.719617z" fill="#360C18" p-id="4509"></path><path d="M397.743607 831.824073h45.719617v45.634319h-45.719617zM397.743607 786.104456h45.719617v45.719617h-45.719617z" fill="#EA4A6E" p-id="4510"></path><path d="M397.743607 740.38484h45.719617v45.719616h-45.719617z" fill="#FA9BB7" p-id="4511"></path><path d="M397.743607 694.750521h45.719617v45.634319h-45.719617z" fill="#FA9BB9" p-id="4512"></path><path d="M397.743607 649.030904h45.719617v45.719617h-45.719617zM397.743607 603.311287h45.719617v45.719617h-45.719617zM397.743607 557.676968h45.719617v45.634319h-45.719617z" fill="#FDA8C7" p-id="4513"></path><path d="M397.743607 511.957351h45.719617v45.719617h-45.719617z" fill="#FDA8C7" p-id="4514"></path><path d="M397.743607 466.323032h45.719617v45.634319h-45.719617z" fill="#FD4E77" p-id="4515"></path><path d="M397.743607 420.603415h45.719617v45.719617h-45.719617zM397.743607 374.883798h45.719617v45.719617h-45.719617zM397.743607 329.249479h45.719617v45.634319h-45.719617zM397.743607 283.529863h45.719617v45.719616h-45.719617zM397.743607 237.810246h45.719617v45.719617h-45.719617z" fill="#FDA8C7" p-id="4516"></path><path d="M397.743607 192.175927h45.719617v45.634319h-45.719617z" fill="#FDA8C7" p-id="4517"></path><path d="M397.743607 146.45631h45.719617v45.719617h-45.719617zM397.743607 100.736693h45.719617v45.719617h-45.719617zM352.02399 877.458392h45.719617v45.719617h-45.719617z" fill="#360C18" p-id="4518"></path><path d="M352.02399 831.824073h45.719617v45.634319h-45.719617zM352.02399 786.104456h45.719617v45.719617h-45.719617z" fill="#EA4A6E" p-id="4519"></path><path d="M352.02399 740.38484h45.719617v45.719616h-45.719617z" fill="#EB7B9B" p-id="4520"></path><path d="M352.02399 694.750521h45.719617v45.634319h-45.719617z" fill="#FA9BB9" p-id="4521"></path><path d="M352.02399 649.030904h45.719617v45.719617h-45.719617zM352.02399 603.311287h45.719617v45.719617h-45.719617zM352.02399 557.676968h45.719617v45.634319h-45.719617z" fill="#FDA8C7" p-id="4522"></path><path d="M352.02399 511.957351h45.719617v45.719617h-45.719617z" fill="#FDA8C7" p-id="4523"></path><path d="M352.02399 466.323032h45.719617v45.634319h-45.719617z" fill="#FD4E77" p-id="4524"></path><path d="M352.02399 420.603415h45.719617v45.719617h-45.719617zM352.02399 374.883798h45.719617v45.719617h-45.719617zM352.02399 329.249479h45.719617v45.634319h-45.719617zM352.02399 283.529863h45.719617v45.719616h-45.719617zM352.02399 237.810246h45.719617v45.719617h-45.719617z" fill="#FDA8C7" p-id="4525"></path><path d="M352.02399 192.175927h45.719617v45.634319h-45.719617z" fill="#FDA8C7" p-id="4526"></path><path d="M352.02399 146.45631h45.719617v45.719617h-45.719617zM306.389671 877.458392h45.634319v45.719617h-45.634319z" fill="#360C18" p-id="4527"></path><path d="M306.389671 831.824073h45.634319v45.634319h-45.634319zM306.389671 786.104456h45.634319v45.719617h-45.634319zM306.389671 740.38484h45.634319v45.719616h-45.634319z" fill="#EA4A6E" p-id="4528"></path><path d="M306.389671 694.750521h45.634319v45.634319h-45.634319zM306.389671 649.030904h45.634319v45.719617h-45.634319z" fill="#FA9BB9" p-id="4529"></path><path d="M306.389671 603.311287h45.634319v45.719617h-45.634319zM306.389671 557.676968h45.634319v45.634319h-45.634319z" fill="#FDA8C7" p-id="4530"></path><path d="M306.389671 511.957351h45.634319v45.719617h-45.634319z" fill="#FDA8C7" p-id="4531"></path><path d="M306.389671 466.323032h45.634319v45.634319h-45.634319z" fill="#EB7D9E" p-id="4532"></path><path d="M306.389671 420.603415h45.634319v45.719617h-45.634319zM306.389671 374.883798h45.634319v45.719617h-45.634319zM306.389671 329.249479h45.634319v45.634319h-45.634319zM306.389671 283.529863h45.634319v45.719616h-45.634319zM306.389671 237.810246h45.634319v45.719617h-45.634319z" fill="#FDA8C7" p-id="4533"></path><path d="M306.389671 192.175927h45.634319v45.634319h-45.634319z" fill="#EE7D99" p-id="4534"></path><path d="M306.389671 146.45631h45.634319v45.719617h-45.634319z" fill="#58212F" p-id="4535"></path><path d="M260.670054 877.458392h45.719617v45.719617h-45.719617z" fill="#360C18" p-id="4536"></path><path d="M260.670054 831.824073h45.719617v45.634319h-45.719617z" fill="#EA4A6E" p-id="4537"></path><path d="M260.670054 786.104456h45.719617v45.719617h-45.719617zM260.670054 740.38484h45.719617v45.719616h-45.719617z" fill="#FF6084" p-id="4538"></path><path d="M260.670054 694.750521h45.719617v45.634319h-45.719617z" fill="#EB7B9B" p-id="4539"></path><path d="M260.670054 649.030904h45.719617v45.719617h-45.719617z" fill="#FA9BB9" p-id="4540"></path><path d="M260.670054 603.311287h45.719617v45.719617h-45.719617z" fill="#FDA8C7" p-id="4541"></path><path d="M260.670054 557.676968h45.719617v45.634319h-45.719617z" fill="#FA9BB9" p-id="4542"></path><path d="M260.670054 511.957351h45.719617v45.719617h-45.719617zM260.670054 466.323032h45.719617v45.634319h-45.719617zM260.670054 420.603415h45.719617v45.719617h-45.719617zM260.670054 374.883798h45.719617v45.719617h-45.719617zM260.670054 329.249479h45.719617v45.634319h-45.719617zM260.670054 283.529863h45.719617v45.719616h-45.719617zM260.670054 237.810246h45.719617v45.719617h-45.719617z" fill="#FDA8C7" p-id="4543"></path><path d="M260.670054 192.175927h45.719617v45.634319h-45.719617zM260.670054 146.45631h45.719617v45.719617h-45.719617z" fill="#58212F" p-id="4544"></path><path d="M214.950437 877.458392h45.719617v45.719617H214.950437z" fill="#360C18" p-id="4545"></path><path d="M214.950437 831.824073h45.719617v45.634319H214.950437z" fill="#EA4A6E" p-id="4546"></path><path d="M214.950437 786.104456h45.719617v45.719617H214.950437z" fill="#FF6084" p-id="4547"></path><path d="M214.950437 740.38484h45.719617v45.719616H214.950437z" fill="#EB7B9B" p-id="4548"></path><path d="M214.950437 694.750521h45.719617v45.634319H214.950437z" fill="#EA4A6E" p-id="4549"></path><path d="M214.950437 649.030904h45.719617v45.719617H214.950437zM214.950437 603.311287h45.719617v45.719617H214.950437z" fill="#FA9BB9" p-id="4550"></path><path d="M214.950437 557.676968h45.719617v45.634319H214.950437z" fill="#FDA8C7" p-id="4551"></path><path d="M214.950437 511.957351h45.719617v45.719617H214.950437zM214.950437 466.323032h45.719617v45.634319H214.950437z" fill="#FDA8C7" p-id="4552"></path><path d="M214.950437 420.603415h45.719617v45.719617H214.950437z" fill="#FA9BB9" p-id="4553"></path><path d="M214.950437 374.883798h45.719617v45.719617H214.950437zM214.950437 329.249479h45.719617v45.634319H214.950437zM214.950437 283.529863h45.719617v45.719616H214.950437z" fill="#FDA8C7" p-id="4554"></path><path d="M214.950437 237.810246h45.719617v45.719617H214.950437z" fill="#58212F" p-id="4555"></path><path d="M214.950437 192.175927h45.719617v45.634319H214.950437z" fill="#58212F" p-id="4556"></path><path d="M169.316118 877.458392h45.634319v45.719617h-45.634319z" fill="#360C18" p-id="4557"></path><path d="M169.316118 831.824073h45.634319v45.634319h-45.634319z" fill="#EA4A6E" p-id="4558"></path><path d="M169.316118 786.104456h45.634319v45.719617h-45.634319z" fill="#FF6084" p-id="4559"></path><path d="M169.316118 740.38484h45.634319v45.719616h-45.634319z" fill="#FDFFFE" p-id="4560"></path><path d="M169.316118 694.750521h45.634319v45.634319h-45.634319z" fill="#EA4A6E" p-id="4561"></path><path d="M169.316118 649.030904h45.634319v45.719617h-45.634319z" fill="#EB7B9B" p-id="4562"></path><path d="M169.316118 603.311287h45.634319v45.719617h-45.634319z" fill="#FA9BB9" p-id="4563"></path><path d="M169.316118 557.676968h45.634319v45.634319h-45.634319z" fill="#FDA8C7" p-id="4564"></path><path d="M169.316118 511.957351h45.634319v45.719617h-45.634319zM169.316118 466.323032h45.634319v45.634319h-45.634319zM169.316118 420.603415h45.634319v45.719617h-45.634319z" fill="#FDA8C7" p-id="4565"></path><path d="M169.316118 374.883798h45.634319v45.719617h-45.634319z" fill="#FA9BB9" p-id="4566"></path><path d="M169.316118 329.249479h45.634319v45.634319h-45.634319zM169.316118 283.529863h45.634319v45.719616h-45.634319zM169.316118 237.810246h45.634319v45.719617h-45.634319z" fill="#58212F" p-id="4567"></path><path d="M123.596501 877.458392h45.719617v45.719617h-45.719617z" fill="#360C18" p-id="4568"></path><path d="M123.596501 831.824073h45.719617v45.634319h-45.719617z" fill="#EA4A6E" p-id="4569"></path><path d="M123.596501 786.104456h45.719617v45.719617h-45.719617z" fill="#FF6084" p-id="4570"></path><path d="M123.596501 740.38484h45.719617v45.719616h-45.719617z" fill="#EB7B9B" p-id="4571"></path><path d="M123.596501 694.750521h45.719617v45.634319h-45.719617zM123.596501 649.030904h45.719617v45.719617h-45.719617z" fill="#360C18" p-id="4572"></path><path d="M123.596501 603.311287h45.719617v45.719617h-45.719617z" fill="#EB7B9B" p-id="4573"></path><path d="M123.596501 557.676968h45.719617v45.634319h-45.719617z" fill="#FA9BB9" p-id="4574"></path><path d="M123.596501 511.957351h45.719617v45.719617h-45.719617zM123.596501 466.323032h45.719617v45.634319h-45.719617z" fill="#FDA8C7" p-id="4575"></path><path d="M123.596501 420.603415h45.719617v45.719617h-45.719617z" fill="#FA9BB9" p-id="4576"></path><path d="M123.596501 374.883798h45.719617v45.719617h-45.719617z" fill="#360C18" p-id="4577"></path><path d="M123.596501 329.249479h45.719617v45.634319h-45.719617z" fill="#58212F" p-id="4578"></path><path d="M77.876885 877.458392h45.719616v45.719617H77.876885z" fill="#360C18" p-id="4579"></path><path d="M77.876885 831.824073h45.719616v45.634319H77.876885zM77.876885 786.104456h45.719616v45.719617H77.876885z" fill="#EA4A6E" p-id="4580"></path><path d="M77.876885 740.38484h45.719616v45.719616H77.876885zM77.876885 649.030904h45.719616v45.719617H77.876885z" fill="#360C18" p-id="4581"></path><path d="M77.876885 603.311287h45.719616v45.719617H77.876885z" fill="#EB7B9B" p-id="4582"></path><path d="M77.876885 557.676968h45.719616v45.634319H77.876885z" fill="#FA9BB9" p-id="4583"></path><path d="M77.876885 511.957351h45.719616v45.719617H77.876885z" fill="#FA9BB9" p-id="4584"></path><path d="M77.876885 466.323032h45.719616v45.634319H77.876885z" fill="#FDA8C7" p-id="4585"></path><path d="M77.876885 420.603415h45.719616v45.719617H77.876885zM77.876885 374.883798h45.719616v45.719617H77.876885zM32.242566 831.824073h45.634319v45.634319H32.242566zM32.242566 786.104456h45.634319v45.719617H32.242566zM32.242566 603.311287h45.634319v45.719617H32.242566zM32.242566 557.676968h45.634319v45.634319H32.242566z" fill="#360C18" p-id="4586"></path><path d="M32.242566 511.957351h45.634319v45.719617H32.242566zM32.242566 466.323032h45.634319v45.634319H32.242566z" fill="#360C18" p-id="4587"></path></svg>
